<svg width="21" height="21" viewBox="0 0 21 21" fill="none" xmlns="http://www.w3.org/2000/svg">
<g id="Group">
<path id="Vector" d="M10.637 4.05451C10.169 3.69041 9.59296 3.49274 9 3.49274C8.40704 3.49274 7.83101 3.69041 7.363 4.05451L2.029 8.20251C1.70844 8.45179 1.44909 8.77103 1.27076 9.13585C1.09242 9.50068 0.999809 9.90143 1 10.3075V17.5075C1 18.0379 1.21071 18.5466 1.58579 18.9217C1.96086 19.2968 2.46957 19.5075 3 19.5075H15C15.5304 19.5075 16.0391 19.2968 16.4142 18.9217C16.7893 18.5466 17 18.0379 17 17.5075V10.3075" stroke="#5E78FF" stroke-width="1.5" stroke-linecap="round" stroke-linejoin="round"/>
<path id="Vector_2" d="M12.0203 8.99249L18.5411 2.61381M18.5411 2.61381H14.2984M18.5411 2.61381V6.85645" stroke="#5E78FF" stroke-width="1.5" stroke-linecap="round" stroke-linejoin="round"/>
</g>
</svg>
